<svg width="1280" height="720" viewBox="0 0 1280 720" fill="none" xmlns="http://www.w3.org/2000/svg">
<rect width="1280" height="720" fill="url(#paint0_linear)"/>
<path opacity="0.2" d="M0 720L42.6667 690.03C85.3333 660.061 170.667 600.122 256 585.137C341.333 570.152 426.667 600.122 512 605.086C597.333 610.424 682.667 589.82 768 585.137C853.333 580.454 938.667 589.82 1024 570.152C1109.33 550.485 1194.67 499.911 1237.33 475.28L1280 450.274V720H1237.33C1194.67 720 1109.33 720 1024 720C938.667 720 853.333 720 768 720C682.667 720 597.333 720 512 720C426.667 720 341.333 720 256 720C170.667 720 85.3333 720 42.6667 720H0Z" fill="white"/>
<path opacity="0.2" d="M0 568.134L42.6667 588.027C85.3333 608.293 170.667 647.518 256 632.856C341.333 617.633 426.667 548.522 512 518.356C597.333 488.75 682.667 498.089 768 518.356C853.333 538.248 938.667 568.134 1024 598.02C1109.33 627.906 1194.67 657.792 1237.33 672.735L1280 687.678V717.563H1237.33C1194.67 717.563 1109.33 717.563 1024 717.563C938.667 717.563 853.333 717.563 768 717.563C682.667 717.563 597.333 717.563 512 717.563C426.667 717.563 341.333 717.563 256 717.563C170.667 717.563 85.3333 717.563 42.6667 717.563H0V568.134Z" fill="white"/>
<defs>
<linearGradient id="paint0_linear" x1="7.58171e-06" y1="360" x2="1280" y2="360" gradientUnits="userSpaceOnUse">
<stop stop-color="#0015D6"/>
<stop offset="1" stop-color="#0989FB"/>
</linearGradient>
</defs>
</svg>
