<svg width="154" height="174" viewBox="0 0 154 174" xmlns="http://www.w3.org/2000/svg">
  <style>
    path {
      fill: black;
    }
    @media(prefers-color-scheme: dark) {
      path {
        fill: white;
    }
  </style>
  <path d="M145.66 124.08C145.66 125.811 144.736 127.408 143.238 128.273L86.5457 161.005C83.319 162.868 79.2851 160.539 79.2851 156.812V91.3481C79.2851 89.6194 80.2076 88.0207 81.7047 87.1559L108.842 71.489C109.917 70.8677 111.262 71.6446 111.262 72.8864V104.221C111.262 106.706 113.952 108.259 116.103 107.017L143.238 91.349C144.315 90.7285 145.66 91.5046 145.66 92.7473V124.08ZM74.4432 82.9637L17.7506 50.2326C14.523 48.3685 14.523 43.7106 17.7506 41.8474L74.4432 9.11536C75.9413 8.25056 77.7871 8.25056 79.2851 9.11536L104 23.3848C105.075 24.0062 105.075 25.5582 104 26.1796L72.0227 44.6412L106.421 64.5021C107.496 65.1226 107.496 66.6755 106.421 67.2969L79.2851 82.9637C77.7862 83.8285 75.9413 83.8285 74.4432 82.9637ZM74.4432 119.888C74.4432 121.13 73.098 121.907 72.0227 121.285L16.1372 89.02C11.1443 86.1374 8.0677 80.8105 8.0677 75.0452V58.617C8.0677 54.8906 12.1025 52.5616 15.3301 54.4248L72.0227 87.1559C73.5208 88.0207 74.4432 89.6194 74.4432 91.3481V119.888ZM74.4432 156.812C74.4432 160.539 70.4094 162.868 67.1817 161.005L10.4891 128.273C8.99107 127.408 8.0677 125.811 8.0677 124.08V92.7473C8.0677 91.5046 9.41294 90.7285 10.4891 91.349L66.3746 123.614C71.3675 126.498 74.4432 131.825 74.4432 137.591V156.812ZM146.741 82.1895L123.091 68.536C119.248 66.3168 116.103 60.8709 116.103 56.4326V29.1245C116.103 24.687 112.959 19.2402 109.115 17.022L83.8516 2.43498C80.009 0.215809 73.7194 0.215809 69.8759 2.43498L6.98694 38.7442C3.14435 40.9634 0 46.4102 0 50.8476V123.465C0 127.903 3.14435 133.349 6.98694 135.569L69.8759 171.877C73.7194 174.096 80.009 174.096 83.8516 171.877L146.741 135.569C150.584 133.349 153.728 127.903 153.728 123.465V94.2929C153.728 89.8555 150.584 84.4087 146.741 82.1895Z" />
</svg>
