<svg width="24" height="24" viewBox="0 0 24 24" fill="none" xmlns="http://www.w3.org/2000/svg">
<path d="M12.0021 6.87225C9.29956 6.87225 7.11965 9.16166 7.11965 12C7.11965 14.8383 9.29956 17.1277 12.0021 17.1277C14.7047 17.1277 16.8846 14.8383 16.8846 12C16.8846 9.16166 14.7047 6.87225 12.0021 6.87225ZM12.0021 15.3337C10.2557 15.3337 8.82788 13.8387 8.82788 12C8.82788 10.1613 10.2514 8.6663 12.0021 8.6663C13.7529 8.6663 15.1764 10.1613 15.1764 12C15.1764 13.8387 13.7486 15.3337 12.0021 15.3337ZM18.2231 6.6625C18.2231 7.32746 17.7132 7.85853 17.0843 7.85853C16.4512 7.85853 15.9455 7.32299 15.9455 6.6625C15.9455 6.00201 16.4554 5.46647 17.0843 5.46647C17.7132 5.46647 18.2231 6.00201 18.2231 6.6625ZM21.4569 7.87638C21.3847 6.27424 21.0362 4.85507 19.9186 3.68582C18.8053 2.51657 17.454 2.15062 15.9285 2.07029C14.3563 1.97657 9.64375 1.97657 8.0715 2.07029C6.55024 2.14616 5.19895 2.51211 4.08138 3.68136C2.96381 4.85061 2.61961 6.26978 2.54312 7.87192C2.45389 9.52315 2.45389 14.4724 2.54312 16.1236C2.61536 17.7258 2.96381 19.1449 4.08138 20.3142C5.19895 21.4834 6.54599 21.8494 8.0715 21.9297C9.64375 22.0234 14.3563 22.0234 15.9285 21.9297C17.454 21.8538 18.8053 21.4879 19.9186 20.3142C21.032 19.1449 21.3804 17.7258 21.4569 16.1236C21.5461 14.4724 21.5461 9.52761 21.4569 7.87638ZM19.4257 17.8953C19.0943 18.7701 18.4526 19.4439 17.6155 19.7965C16.3619 20.3186 13.3874 20.1981 12.0021 20.1981C10.6168 20.1981 7.63807 20.3142 6.38877 19.7965C5.5559 19.4484 4.91425 18.7745 4.57855 17.8953C4.08138 16.5788 4.19611 13.4549 4.19611 12C4.19611 10.5451 4.08563 7.41671 4.57855 6.10465C4.91 5.22995 5.55165 4.55606 6.38877 4.2035C7.64232 3.68136 10.6168 3.80185 12.0021 3.80185C13.3874 3.80185 16.3662 3.68582 17.6155 4.2035C18.4484 4.5516 19.09 5.22548 19.4257 6.10465C19.9229 7.42118 19.8081 10.5451 19.8081 12C19.8081 13.4549 19.9229 16.5833 19.4257 17.8953Z" fill="white"/>
</svg>
