<svg width="108" height="48" viewBox="0 0 108 48" fill="none" xmlns="http://www.w3.org/2000/svg">
<path d="M105.749 38.7105V34.6832C105.749 31.5121 105.069 30.2785 102.351 30.2785C100.086 30.2785 98.928 31.2601 98.928 34.0792V38.6601C98.928 41.8313 99.6328 42.964 102.351 42.964C105.069 42.964 105.749 41.8064 105.749 38.7105ZM97.6947 23.7345H98.9532V30.656C99.6831 29.3975 101.118 29.0202 102.351 29.0202C105.623 29.0202 107.007 30.5302 107.007 34.7084V38.786C107.007 42.6873 105.522 44.2227 102.351 44.2227C99.1797 44.2227 97.6947 43.0649 97.6947 38.635V23.7345Z" fill="white"/>
<path d="M78.9178 37.4519C74.1103 36.9737 71.8701 37.7036 71.8701 40.271C71.8701 42.1587 72.9525 42.9642 75.1674 42.9642C77.9613 42.9642 78.9178 40.8499 78.9178 39.3397V37.4519ZM79.0688 44.0213L79.0436 42.058C78.0368 43.6941 76.6774 44.1472 74.7144 44.1472C72.298 44.1472 70.6116 43.0397 70.6116 40.2458C70.6116 36.5961 73.7579 35.841 78.9178 36.2437V34.1297C78.9429 31.512 78.0368 30.4043 75.7212 30.4043C73.632 30.4043 72.5246 31.0587 72.5246 33.8528H71.3166C71.3166 30.7567 72.5497 29.2716 75.7212 29.2716C78.691 29.2716 80.1259 30.6812 80.1259 34.1043V44.0213H79.0688Z" fill="white"/>
<path d="M54.1759 44.0463C51.1052 44.2477 50.5515 43.1654 50.5515 39.8935V24.5903H51.81V39.969C51.81 42.5613 52.112 42.9137 54.1759 42.9137V44.0463Z" fill="white"/>
<path d="M101.302 19.325C103.407 19.325 103.934 18.5879 103.934 17.0508V10.7336C103.934 9.19667 103.597 8.39632 101.344 8.39632H98.8591V19.325H101.302ZM101.302 5.74329C105.218 5.74329 106.84 7.15408 106.84 10.5864V17.1982C106.84 20.5464 105.155 21.9572 101.302 21.9572H95.9742V5.74329H101.302Z" fill="white"/>
<path d="M92.1637 21.9781H89.2366V5.76447H92.1637V21.9781Z" fill="white"/>
<path d="M86.416 21.9571H77.2352V5.74348H80.1621V19.3041H86.416V21.9571Z" fill="white"/>
<path d="M70.7085 17.1141V10.5442C70.7085 9.07013 70.3296 8.12282 68.0763 8.12282C65.9706 8.12282 65.5707 9.07013 65.5707 10.5442V17.1141C65.5707 18.651 65.9706 19.5356 68.0763 19.5356C70.1822 19.5356 70.7085 18.651 70.7085 17.1141ZM62.6647 17.2613V10.397C62.6647 6.96474 64.1599 5.55395 68.0763 5.55395C71.9931 5.55395 73.6145 6.96474 73.6145 10.397V17.2613C73.6145 20.6095 71.9298 22.1044 68.0763 22.1044C64.223 22.1044 62.6647 20.6095 62.6647 17.2613Z" fill="white"/>
<path d="M54.138 8.20705C52.5375 8.20705 51.8849 8.71223 51.8849 10.2494C51.8849 12.292 53.5062 12.1234 55.9698 12.5027C57.8441 12.7974 59.6337 13.5556 59.6337 16.7982C59.6337 20.5463 58.0124 22.1256 54.1169 22.1256C50.0742 22.1256 48.7895 20.1672 48.7895 17.5561H51.7163C51.7796 18.7986 52.327 19.4723 54.1802 19.4723C55.9279 19.4723 56.728 18.7355 56.728 16.9037C56.728 14.9872 54.4537 14.9872 52.7272 14.7556C50.8954 14.5242 48.9578 13.6186 48.9578 10.2707C48.9578 7.23839 50.8109 5.65928 54.138 5.65928C57.0651 5.65928 59.0022 6.73295 59.2757 9.97582H56.3489C56.2647 8.60698 55.5488 8.20705 54.138 8.20705Z" fill="white"/>
<path d="M40.4143 34.213C40.4143 34.6932 40.1581 35.1365 39.7424 35.3764L24.0127 44.4581C23.1174 44.9751 21.9982 44.3286 21.9982 43.2947V25.1313C21.9982 24.6517 22.2541 24.2081 22.6695 23.9682L30.1989 19.6213C30.4972 19.4489 30.8704 19.6644 30.8704 20.009V28.703C30.8704 29.3924 31.6167 29.8232 32.2136 29.4787L39.7424 25.1316C40.041 24.9594 40.4143 25.1747 40.4143 25.5195V34.213ZM20.6548 22.805L4.92502 13.7235C4.02949 13.2063 4.02949 11.914 4.92502 11.397L20.6548 2.31529C21.0704 2.07534 21.5825 2.07534 21.9982 2.31529L28.8554 6.27444C29.1538 6.44684 29.1538 6.87747 28.8554 7.04987L19.9832 12.1722L29.5273 17.6827C29.8256 17.8549 29.8256 18.2857 29.5273 18.4581L21.9982 22.805C21.5823 23.045 21.0704 23.045 20.6548 22.805ZM20.6548 33.0499C20.6548 33.3944 20.2815 33.61 19.9832 33.4376L4.47738 24.4854C3.09207 23.6856 2.23844 22.2076 2.23844 20.608V16.0498C2.23844 15.0159 3.35791 14.3697 4.25344 14.8867L19.9832 23.9682C20.3988 24.2081 20.6548 24.6517 20.6548 25.1313V33.0499ZM20.6548 43.2947C20.6548 44.3286 19.5356 44.9751 18.64 44.4581L2.91028 35.3764C2.49463 35.1365 2.23844 34.6932 2.23844 34.213V25.5195C2.23844 25.1747 2.61168 24.9594 2.91028 25.1316L18.4161 34.0838C19.8014 34.8838 20.6548 36.3618 20.6548 37.9617V43.2947ZM40.7141 22.5902L34.1524 18.8019C33.0863 18.1862 32.2136 16.6752 32.2136 15.4438V7.86695C32.2136 6.63575 31.3412 5.1245 30.2748 4.50904L23.2652 0.461769C22.199 -0.153954 20.4539 -0.153954 19.3875 0.461769L1.93857 10.536C0.872421 11.1517 0 12.663 0 13.8942V34.0424C0 35.2738 0.872421 36.7848 1.93857 37.4006L19.3875 47.4745C20.4539 48.0903 22.199 48.0903 23.2652 47.4745L40.7141 37.4006C41.7805 36.7848 42.653 35.2738 42.653 34.0424V25.9484C42.653 24.7172 41.7805 23.2059 40.7141 22.5902Z" fill="white"/>
</svg>
