<svg width="16" height="16" viewBox="0 0 16 16" fill="none" xmlns="http://www.w3.org/2000/svg">
<path d="M12.6696 3.27087C11.4226 2.02087 9.76191 1.33337 7.99703 1.33337C4.35417 1.33337 1.38988 4.29766 1.38988 7.94052C1.38988 9.10421 1.69345 10.2411 2.27084 11.2441L1.33334 14.6667L4.83631 13.7471C5.8006 14.2739 6.88691 14.5506 7.99405 14.5506H7.99703C11.6369 14.5506 14.6667 11.5864 14.6667 7.94349C14.6667 6.17861 13.9167 4.52087 12.6696 3.27087V3.27087ZM7.99703 13.4375C7.00893 13.4375 6.04167 13.1727 5.19941 12.6727L5 12.5536L2.92262 13.0983L3.47619 11.0715L3.34524 10.8631C2.79465 9.98814 2.50596 8.97921 2.50596 7.94052C2.50596 4.91373 4.97024 2.44945 8 2.44945C9.46726 2.44945 10.8452 3.02087 11.881 4.05956C12.9167 5.09826 13.5536 6.47623 13.5506 7.94349C13.5506 10.9733 11.0238 13.4375 7.99703 13.4375V13.4375ZM11.0089 9.32445C10.8452 9.24111 10.0327 8.8423 9.88096 8.78873C9.72917 8.73218 9.61905 8.7054 9.50893 8.87206C9.39881 9.03873 9.08334 9.40778 8.98512 9.52087C8.88988 9.63099 8.79167 9.64587 8.62798 9.56254C7.65774 9.07742 7.02084 8.69647 6.38096 7.59826C6.21131 7.30659 6.5506 7.32742 6.86607 6.69647C6.91965 6.58635 6.89286 6.49111 6.85119 6.40778C6.80953 6.32445 6.47917 5.51195 6.34226 5.18159C6.20834 4.86016 6.07143 4.9048 5.97024 4.89885C5.875 4.8929 5.76488 4.8929 5.65476 4.8929C5.54465 4.8929 5.36607 4.93456 5.21429 5.09826C5.0625 5.26492 4.63691 5.66373 4.63691 6.47623C4.63691 7.28873 5.22917 8.07445 5.30953 8.18457C5.39286 8.29468 6.47322 9.96135 8.13096 10.6786C9.17857 11.131 9.58929 11.1697 10.1131 11.0923C10.4316 11.0447 11.0893 10.6935 11.2262 10.3066C11.3631 9.91968 11.3631 9.58933 11.3214 9.52087C11.2827 9.44647 11.1726 9.4048 11.0089 9.32445Z" fill="white"/>
</svg>
