<svg width="108" height="48" viewBox="0 0 108 48" fill="none" xmlns="http://www.w3.org/2000/svg">
<path d="M105.749 38.7104V34.6832C105.749 31.512 105.069 30.2784 102.351 30.2784C100.086 30.2784 98.928 31.2601 98.928 34.0791V38.6601C98.928 41.8312 99.6328 42.9639 102.351 42.9639C105.069 42.9639 105.749 41.8063 105.749 38.7104ZM97.6947 23.7344H98.9532V30.656C99.6831 29.3975 101.118 29.0202 102.351 29.0202C105.623 29.0202 107.007 30.5301 107.007 34.7084V38.7859C107.007 42.6873 105.522 44.2227 102.351 44.2227C99.1797 44.2227 97.6947 43.0648 97.6947 38.6349V23.7344Z" fill="white"/>
<path d="M78.9177 37.4518C74.1102 36.9736 71.8701 37.7035 71.8701 40.2709C71.8701 42.1587 72.9524 42.9641 75.1674 42.9641C77.9612 42.9641 78.9177 40.8498 78.9177 39.3396V37.4518ZM79.0687 44.0212L79.0436 42.058C78.0367 43.694 76.6773 44.1471 74.7143 44.1471C72.298 44.1471 70.6116 43.0396 70.6116 40.2457C70.6116 36.5961 73.7578 35.841 78.9177 36.2437V34.1296C78.9429 31.512 78.0367 30.4042 75.7211 30.4042C73.632 30.4042 72.5245 31.0586 72.5245 33.8528H71.3166C71.3166 30.7566 72.5497 29.2716 75.7211 29.2716C78.6909 29.2716 80.1259 30.6811 80.1259 34.1042V44.0212H79.0687Z" fill="white"/>
<path d="M54.1759 44.0463C51.1051 44.2477 50.5514 43.1654 50.5514 39.8935V24.5903H51.8099V39.969C51.8099 42.5613 52.1119 42.9137 54.1759 42.9137V44.0463Z" fill="white"/>
<path d="M101.302 19.325C103.407 19.325 103.934 18.5879 103.934 17.0508V10.7336C103.934 9.19667 103.597 8.39632 101.343 8.39632H98.859V19.325H101.302ZM101.302 5.74329C105.218 5.74329 106.839 7.15408 106.839 10.5864V17.1982C106.839 20.5464 105.155 21.9572 101.302 21.9572H95.9741V5.74329H101.302Z" fill="white"/>
<path d="M92.1637 21.978H89.2366V5.76441H92.1637V21.978Z" fill="white"/>
<path d="M86.416 21.957H77.2352V5.74342H80.1621V19.304H86.416V21.957Z" fill="white"/>
<path d="M70.7084 17.1142V10.5443C70.7084 9.07019 70.3296 8.12288 68.0762 8.12288C65.9706 8.12288 65.5707 9.07019 65.5707 10.5443V17.1142C65.5707 18.6511 65.9706 19.5356 68.0762 19.5356C70.1821 19.5356 70.7084 18.6511 70.7084 17.1142ZM62.6647 17.2614V10.3971C62.6647 6.9648 64.1599 5.55401 68.0762 5.55401C71.9931 5.55401 73.6144 6.9648 73.6144 10.3971V17.2614C73.6144 20.6095 71.9298 22.1045 68.0762 22.1045C64.2229 22.1045 62.6647 20.6095 62.6647 17.2614" fill="white"/>
<path d="M54.1379 8.20705C52.5375 8.20705 51.8848 8.71223 51.8848 10.2494C51.8848 12.292 53.5062 12.1234 55.9698 12.5027C57.8441 12.7974 59.6337 13.5556 59.6337 16.7982C59.6337 20.5463 58.0124 22.1256 54.1168 22.1256C50.0741 22.1256 48.7894 20.1672 48.7894 17.5561H51.7163C51.7796 18.7986 52.327 19.4723 54.1802 19.4723C55.9278 19.4723 56.7279 18.7355 56.7279 16.9037C56.7279 14.9872 54.4537 14.9872 52.7272 14.7556C50.8953 14.5242 48.9577 13.6186 48.9577 10.2707C48.9577 7.23838 50.8109 5.65928 54.1379 5.65928C57.0651 5.65928 59.0021 6.73295 59.2757 9.97582H56.3488C56.2647 8.60698 55.5487 8.20705 54.1379 8.20705Z" fill="white"/>
<path d="M40.4143 34.2131C40.4143 34.6932 40.1581 35.1365 39.7424 35.3765L24.0127 44.4582C23.1174 44.9752 21.9982 44.3287 21.9982 43.2948V25.1314C21.9982 24.6517 22.2541 24.2082 22.6695 23.9682L30.1989 19.6213C30.4972 19.4489 30.8704 19.6645 30.8704 20.0091V28.7031C30.8704 29.3924 31.6167 29.8233 32.2136 29.4787L39.7424 25.1316C40.041 24.9595 40.4143 25.1748 40.4143 25.5196V34.2131ZM20.6548 22.8051L4.92502 13.7236C4.02949 13.2064 4.02949 11.914 4.92502 11.3971L20.6548 2.31535C21.0704 2.0754 21.5825 2.0754 21.9982 2.31535L28.8554 6.2745C29.1538 6.44691 29.1538 6.87753 28.8554 7.04993L19.9832 12.1722L29.5273 17.6828C29.8256 17.8549 29.8256 18.2858 29.5273 18.4582L21.9982 22.8051C21.5823 23.045 21.0704 23.045 20.6548 22.8051ZM20.6548 33.0499C20.6548 33.3945 20.2815 33.6101 19.9832 33.4377L4.47738 24.4854C3.09207 23.6856 2.23844 22.2076 2.23844 20.608V16.0499C2.23844 15.016 3.35791 14.3698 4.25344 14.8868L19.9832 23.9682C20.3988 24.2082 20.6548 24.6517 20.6548 25.1314V33.0499ZM20.6548 43.2948C20.6548 44.3287 19.5356 44.9752 18.64 44.4582L2.91028 35.3765C2.49463 35.1365 2.23844 34.6932 2.23844 34.2131V25.5196C2.23844 25.1748 2.61168 24.9595 2.91028 25.1316L18.4161 34.0838C19.8014 34.8839 20.6548 36.3619 20.6548 37.9618V43.2948ZM40.7141 22.5903L34.1524 18.802C33.0863 18.1863 32.2136 16.6753 32.2136 15.4438V7.867C32.2136 6.63581 31.3412 5.12457 30.2748 4.5091L23.2652 0.46183C22.199 -0.153893 20.4539 -0.153893 19.3875 0.46183L1.93857 10.5361C0.872421 11.1518 0 12.663 0 13.8942V34.0425C0 35.2739 0.872421 36.7849 1.93857 37.4006L19.3875 47.4746C20.4539 48.0903 22.199 48.0903 23.2652 47.4746L40.7141 37.4006C41.7805 36.7849 42.653 35.2739 42.653 34.0425V25.9484C42.653 24.7172 41.7805 23.206 40.7141 22.5903" fill="white"/>
</svg>
